<svg width="1690" height="239" viewBox="0 0 1690 239" fill="none" xmlns="http://www.w3.org/2000/svg">
<path d="M91.1807 7.00684L0 232.322H19.8099C22.2605 216.094 26.4399 198.372 31.3946 180.819H117.986L139.658 232.322H193.224L96.5631 7.00684H91.1807ZM32.7491 176.009C48.3083 122.354 70.1767 71.6963 70.1767 71.6963H72.057L115.936 176.009H32.7491Z" fill="black"/>
<path d="M1357.52 7.00684L1266.34 232.322H1286.11C1288.55 216.094 1292.74 198.372 1297.69 180.819H1384.29L1405.96 232.322H1459.53L1362.91 7.00684H1357.52ZM1299.08 176.053C1314.65 122.399 1336.51 71.7408 1336.51 71.7408H1338.4L1382.28 176.053H1299.08Z" fill="black"/>
<path d="M266.092 28.3655H258.482L216.1 70.9049V70.985H186.71V75.8044H216.1V232.322H266.092V75.8044H294.671V70.985H266.092V28.3655Z" fill="black"/>
<path d="M962.877 66.2901C921.457 65.2142 892.78 79.8682 892.78 79.8682V99.1817C892.78 99.1817 923.89 70.4338 951.203 70.4338C978.516 70.4338 979.648 93.2774 979.648 104.348V138.609C934.04 139.4 877.72 148.826 876.624 196.594C875.448 247.341 962.681 255.744 982.669 196.594L1023.46 239H1030.2V135.586C1030.2 98.7816 1020.97 67.8018 962.877 66.2901ZM979.648 189.462C974.818 212.297 955.712 218.806 947.139 218.806C929.664 218.806 923.524 201.378 923.524 187.017C923.524 172.657 934.049 146.665 979.666 142.957L979.648 189.462Z" fill="black"/>
<path d="M422.307 66.29C389.255 66.29 370.274 84.5809 366.718 108.136V0H315.924V232.322H366.718V118.504C370.024 100.916 377.243 84.3675 398.443 84.3675C421.282 84.3675 428.394 100.827 428.394 118.557V232.375H478.894V121.403C478.894 84.1719 456.259 66.29 422.307 66.29Z" fill="black"/>
<path d="M797.59 66.2901C765.108 66.2901 745.397 85.1857 741.351 108.198L698.746 64.8052H692.009V232.322H742.01V119.936C744.229 102.152 754.014 84.3054 775.214 84.3054C798.054 84.3054 803.677 100.765 803.677 118.495V232.313H854.177V121.403C854.177 84.172 831.542 66.2901 797.59 66.2901Z" fill="black"/>
<path d="M591.686 66.3344C531.383 67.2236 502.777 109.683 502.777 152.774C502.777 191.009 527.8 237.515 593.673 237.515C642.961 237.515 660.303 214.28 660.303 214.28V209.211C660.303 209.211 638.916 230.73 608.983 230.73C579.049 230.73 558.411 210.75 557.163 152.783H664.634C664.634 152.712 667.503 146.487 667.503 131.495C667.503 116.503 657.077 65.3385 591.686 66.3344ZM622.956 147.972H557.163C556.593 72.8434 581.509 70.6115 593.058 70.6559C615.8 70.8427 627.046 87.1062 622.92 147.963L622.956 147.972Z" fill="black"/>
<path d="M1154.75 13.4624H1065.57V232.322H1155.95C1227.24 232.322 1272.48 188.751 1272.48 122.897C1272.48 57.0422 1227.51 13.4624 1154.75 13.4624ZM1150.35 228.027H1119.17V17.4994H1149.46C1170.98 17.4994 1215.84 26.6048 1215.84 122.897C1215.91 218.788 1171.8 228.027 1150.35 228.027V228.027Z" fill="black"/>
<path d="M1682.82 83.7007C1660.96 23.0127 1597.9 -7.51366 1533.84 15.4544C1469.13 38.6626 1440.1 100.622 1462.46 162.724C1483.89 222.238 1543.97 255.201 1611.45 230.97C1676.88 207.504 1704.26 143.215 1682.82 83.7007ZM1610.05 227.147C1566.19 242.868 1537.95 200.471 1517.28 143.064C1495.71 83.1672 1491.61 34.9191 1535.21 19.2869C1578.8 3.65472 1606.91 44.8426 1627.98 103.37C1648.65 160.768 1653.91 211.417 1610.05 227.147Z" fill="black"/>
</svg>
