<svg width="2178" height="347" viewBox="0 0 2178 347" fill="none" xmlns="http://www.w3.org/2000/svg">
<g clip-path="url(#clip0_301_65)">
<path d="M289.979 64.3185H201.061L233.252 96.5069H276.649L324.731 144.557V144.586L276.183 193.13H202.604L137.873 128.404H74.5103V144.498V160.593H124.455L189.186 225.319H289.513L354.186 160.68L354.157 128.492L289.979 64.3185Z" fill="#9786FF"/>
<path d="M64.498 225.26H153.416L121.225 193.072H77.8283L29.4549 144.702V144.673L77.6246 96.5069H151.204L216.313 160.855L279.297 161.233V145.139V128.666H229.73L165 63.9402L64.2942 64.3185L0 128.608V160.796L64.498 225.26Z" fill="#9786FF"/>
<path d="M96.252 257.565H260.669L327.321 324.241L304.59 347L247.339 289.754H128.443L96.252 257.565Z" fill="#9786FF"/>
<path d="M327.176 278.84L304.386 256.081L386.086 174.417V114.813L303.455 32.1884H157.723L189.914 0H316.785L418.276 101.484V187.746L336.693 269.294L333.841 272.146L327.176 278.84Z" fill="#9786FF"/>
<path d="M547.33 229.51C536.299 224.038 527.597 215.947 521.164 205.208C514.761 194.469 511.56 181.664 511.56 166.763C511.56 143.014 517.934 124.883 530.653 112.339C543.372 99.7956 560.952 93.5384 583.392 93.5384C595.646 93.5384 605.92 94.848 614.215 97.4965C622.51 100.145 630.514 104.365 638.256 110.215V137.368H611.974V121.827C607.637 119.382 603.504 117.694 599.546 116.734C595.587 115.803 590.203 115.308 583.421 115.308C570.789 115.308 560.573 119.499 552.744 127.88C544.915 136.262 541.014 149.213 541.014 166.763C541.014 183.352 545.497 195.662 554.432 203.666C563.397 211.669 574.835 215.685 588.777 215.685C597.45 215.685 604.843 214.929 610.984 213.415C617.096 211.902 622.918 209.37 628.36 205.79L638.809 223.049C630.892 228.52 622.83 232.333 614.622 234.486C606.415 236.64 596.286 237.746 584.236 237.746C570.673 237.746 558.361 235.01 547.33 229.539V229.51Z" fill="#474799"/>
<path d="M669.079 219.731C656.156 207.769 649.724 190.278 649.724 167.286C649.724 142.781 655.691 124.359 667.682 112.019C679.645 99.6792 696.671 93.5093 718.704 93.5093C740.737 93.5093 756.105 99.5337 767.049 111.612C777.992 123.69 783.435 139.987 783.435 160.534V173.544H679.674C679.674 188.823 683.399 200.086 690.85 207.333C698.301 214.579 708.343 218.217 720.975 218.217C728.135 218.217 734.159 217.694 739.078 216.675C743.968 215.627 748.421 213.91 752.38 211.436V201.25H778.662V221.04C770.745 226.686 762.217 230.877 753.078 233.613C743.939 236.349 733.141 237.717 720.713 237.717C699.233 237.717 682.031 231.75 669.108 219.76L669.079 219.731ZM754.33 155.121C754.33 127.589 742.367 113.853 718.413 113.853C705.781 113.853 696.177 117.52 689.57 124.883C682.963 132.246 679.674 142.316 679.674 155.121H754.33Z" fill="#474799"/>
<path d="M794.379 212.542H801.452C805.206 212.542 807.913 211.756 809.514 210.127C811.115 208.526 811.93 205.848 811.93 202.065V129.132C811.93 125.552 811.173 122.904 809.659 121.216C808.146 119.528 805.614 118.684 802.034 118.684H796.096V97.7583H835.127L839.085 113.3C842.84 107.45 847.7 103.404 853.638 101.134C859.575 98.8643 866.59 97.7292 874.71 97.7292H887.721V118.655H871.887C861.147 118.655 853.521 121.07 848.981 125.872C844.47 130.674 842.199 138.067 842.199 148.078V202.065C842.199 205.848 842.956 208.526 844.47 210.127C845.983 211.727 848.515 212.542 852.095 212.542H859.168V233.468H794.408V212.542H794.379Z" fill="#474799"/>
<path d="M911.558 219.731C898.635 207.769 892.173 190.278 892.173 167.286C892.173 142.781 898.169 124.359 910.132 112.019C922.094 99.6792 939.121 93.5093 961.183 93.5093C983.245 93.5093 998.583 99.5337 1009.53 111.612C1020.47 123.69 1025.91 139.987 1025.91 160.534V173.544H922.152C922.152 188.823 925.878 200.086 933.329 207.333C940.78 214.579 950.821 218.217 963.453 218.217C970.613 218.217 976.638 217.694 981.557 216.675C986.446 215.627 990.899 213.91 994.858 211.436V201.25H1021.17V221.04C1013.25 226.686 1004.72 230.877 995.585 233.613C986.446 236.349 975.648 237.717 963.22 237.717C941.74 237.717 924.539 231.75 911.616 219.76L911.558 219.731ZM996.808 155.121C996.808 127.589 984.846 113.853 960.892 113.853C948.26 113.853 938.655 117.52 932.048 124.883C925.441 132.246 922.152 142.316 922.152 155.121H996.808Z" fill="#474799"/>
<path d="M1069.19 214.23L1066.92 233.468H1043.73V79.365C1043.73 75.0286 1043.03 71.8854 1041.6 69.9064C1040.18 67.9274 1037.32 66.9378 1032.99 66.9378H1027.6V46.3035H1072.83V114.144C1077.72 107.159 1084.24 101.978 1092.33 98.6024C1100.42 95.2264 1109.59 93.5093 1119.75 93.5093C1138.78 93.5093 1153.25 99.621 1163.15 111.874C1173.04 124.126 1177.99 142.025 1177.99 165.598C1177.99 189.172 1172.49 205.878 1161.46 218.596C1150.43 231.314 1135.5 237.688 1116.64 237.688C1094.4 237.688 1078.57 229.859 1069.14 214.23H1069.19ZM1140.15 203.782C1145.8 195.866 1148.62 182.944 1148.62 165.045C1148.62 147.147 1145.74 134.138 1140.01 126.6C1134.24 119.062 1124.61 115.279 1111.02 115.279C1100.28 115.279 1091.37 118.946 1084.3 126.309C1077.23 133.672 1073.7 144.033 1073.7 157.42V173.806C1073.7 186.058 1077.34 196.099 1084.59 203.928C1091.84 211.756 1101.21 215.656 1112.74 215.656C1125.37 215.656 1134.51 211.698 1140.15 203.782Z" fill="#474799"/>
<path d="M1187.3 212.542H1194.38C1198.13 212.542 1200.84 211.756 1202.44 210.127C1204.04 208.526 1204.85 205.848 1204.85 202.065V129.132C1204.85 125.552 1204.1 122.904 1202.58 121.216C1201.07 119.528 1198.54 118.684 1194.96 118.684H1189.02V97.7583H1228.05L1232.01 113.3C1235.77 107.45 1240.63 103.404 1246.56 101.134C1252.5 98.8643 1259.52 97.7292 1267.64 97.7292H1280.65V118.655H1264.81C1254.07 118.655 1246.45 121.07 1241.91 125.872C1237.37 130.674 1235.12 138.067 1235.12 148.078V202.065C1235.12 205.848 1235.88 208.526 1237.39 210.127C1238.91 211.727 1241.44 212.542 1245.02 212.542H1252.09V233.468H1187.33V212.542H1187.3Z" fill="#474799"/>
<path d="M1326.11 225.551C1318.19 217.461 1314.23 205.848 1314.23 190.773V129.132C1314.23 125.552 1313.42 122.904 1311.82 121.216C1310.22 119.528 1307.63 118.684 1304.05 118.684H1295.84V97.7584H1344.47V190.482C1344.47 208.759 1353.32 217.897 1371.05 217.897C1380.65 217.897 1388.39 215.074 1394.24 209.428C1400.1 203.782 1403.01 195.662 1403.01 185.127V129.161C1403.01 125.581 1402.31 122.933 1400.88 121.245C1399.45 119.557 1397.07 118.713 1393.66 118.713H1385.75V97.7875H1432.96V202.123C1432.96 205.703 1433.8 208.293 1435.49 209.894C1437.18 211.495 1439.82 212.309 1443.4 212.309H1449.05V233.526H1413.13L1411.45 215.162C1405.42 223.078 1398.38 228.84 1390.37 232.42C1382.37 236 1372.62 237.804 1361.12 237.804C1345.67 237.804 1334 233.759 1326.08 225.639L1326.11 225.551Z" fill="#474799"/>
<path d="M1464.94 212.542H1472.01C1475.77 212.542 1478.48 211.756 1480.08 210.127C1481.68 208.526 1482.49 205.848 1482.49 202.065V129.132C1482.49 125.552 1481.68 122.962 1480.08 121.361C1478.48 119.761 1475.8 118.946 1472.01 118.946H1466.37V97.7293H1501.7L1503.68 116.967C1508.78 109.05 1515.12 103.172 1522.78 99.3009C1530.4 95.4301 1539.69 93.5093 1550.63 93.5093C1558.92 93.5093 1566.08 95.401 1572.11 99.1553C1578.13 102.939 1582.67 108.294 1585.67 115.279C1590.39 107.741 1596.18 102.24 1603.05 98.7479C1609.92 95.2555 1618.56 93.5093 1628.92 93.5093C1644.38 93.5093 1655.55 97.38 1662.42 105.092C1669.29 112.834 1672.76 124.417 1672.76 139.871V202.065C1672.76 205.645 1673.6 208.293 1675.29 209.981C1676.98 211.669 1679.62 212.513 1683.2 212.513H1691.12V233.438H1643.07V139.871C1643.07 130.442 1641.26 123.748 1637.68 119.79C1634.1 115.832 1628.08 113.853 1619.58 113.853C1611.08 113.853 1604.07 116.297 1599.09 121.216C1594.08 126.105 1591.61 133.294 1591.61 142.694V202.065C1591.61 205.848 1592.31 208.526 1593.73 210.127C1595.16 211.727 1597.63 212.542 1601.21 212.542H1608.84V233.468H1563.61V140.744C1563.61 131.518 1561.81 124.737 1558.23 120.401C1554.65 116.064 1549 113.911 1541.26 113.911C1531.83 113.911 1524.58 116.559 1519.49 121.827C1514.39 127.095 1511.86 134.836 1511.86 145.022V202.123C1511.86 205.907 1512.56 208.584 1513.99 210.185C1515.41 211.786 1517.89 212.6 1521.47 212.6H1529.09V233.526H1464.91V212.6L1464.94 212.542Z" fill="#474799"/>
<path d="M1748.11 219.614C1737.66 207.566 1732.42 190.307 1732.42 167.868C1732.42 144.324 1737.6 126.018 1747.96 113.009C1758.33 99.9993 1773.32 93.5093 1792.93 93.5093C1804.43 93.5093 1813.63 94.9353 1820.5 97.7584C1827.36 100.581 1833.07 105.296 1837.61 111.903V79.3941C1837.61 74.8831 1836.85 71.6817 1835.34 69.79C1833.83 67.8983 1830.92 66.967 1826.58 66.967H1821.78V46.3326H1866.74V203.229C1866.74 207.391 1867.41 210.243 1868.72 211.844C1870.03 213.444 1872.48 214.259 1876.09 214.259H1881.73V233.497H1843.84L1841.31 213.706C1835.66 222.175 1828.97 228.316 1821.22 232.071C1813.48 235.825 1803.7 237.717 1791.83 237.717C1773.17 237.717 1758.62 231.692 1748.14 219.614H1748.11ZM1826.84 203.928C1833.62 196.099 1837.03 185.592 1837.03 172.409V158.002C1837.03 144.237 1833.77 133.701 1827.28 126.338C1820.79 118.975 1811.59 115.308 1799.71 115.308C1786.33 115.308 1776.66 119.44 1770.73 127.735C1764.79 136.029 1761.82 149.33 1761.82 167.607C1761.82 185.884 1764.64 197.292 1770.29 204.655C1775.94 212.018 1785.37 215.685 1798.55 215.685C1810.6 215.685 1820.03 211.786 1826.81 203.957L1826.84 203.928Z" fill="#9786FF"/>
<path d="M1907 227.792C1899.17 221.186 1895.27 211.873 1895.27 199.795C1895.27 186.233 1899.55 176.279 1908.13 169.964C1916.72 163.648 1929.09 159.923 1945.3 158.788L1984.88 156.256V138.998C1984.88 130.15 1982.99 123.719 1979.24 119.761C1975.45 115.802 1969.05 113.823 1960 113.823C1953.77 113.823 1948.65 114.347 1944.6 115.366C1940.56 116.414 1936.83 118.043 1933.43 120.314V130.5H1907.11V108.177C1922.95 98.3695 1940.76 93.4802 1960.55 93.4802C1996.76 93.4802 2014.83 109.516 2014.83 141.53V203.433C2014.83 207.216 2015.53 209.923 2016.96 211.64C2018.39 213.357 2020.68 214.172 2023.89 214.172H2030.11V233.409H1997.6L1993.94 215.598C1987.91 223.34 1980.9 228.927 1972.86 232.42C1964.86 235.912 1954.35 237.658 1941.34 237.658C1926.27 237.658 1914.8 234.37 1907 227.763V227.792ZM1974.99 209.981C1981.6 205.092 1984.88 197.641 1984.88 187.659V174.097L1947.57 176.92C1938.34 177.473 1931.91 179.423 1928.33 182.711C1924.75 186 1922.95 191.239 1922.95 198.398C1922.95 204.626 1924.93 209.341 1928.89 212.542C1932.84 215.744 1939.25 217.344 1948.1 217.344C1959.42 217.344 1968.35 214.9 1974.96 209.981H1974.99Z" fill="#9786FF"/>
<path d="M2056.43 218.741C2044.73 206.11 2038.9 188.503 2038.9 165.86C2038.9 143.218 2044.7 125.29 2056.28 112.572C2067.86 99.8538 2085.27 93.4802 2108.44 93.4802C2131.61 93.4802 2149.01 99.8538 2160.59 112.572C2172.18 125.29 2177.97 143.072 2177.97 165.86C2177.97 188.648 2172.12 206.11 2160.45 218.741C2148.75 231.372 2131.43 237.688 2108.44 237.688C2085.44 237.688 2068.1 231.372 2056.43 218.741ZM2138.71 204.044C2145.31 195.75 2148.6 183.031 2148.6 165.889C2148.6 148.748 2145.31 135.68 2138.71 127.298C2132.1 118.917 2122.03 114.726 2108.47 114.726C2094.9 114.726 2084.86 118.917 2078.34 127.298C2071.85 135.68 2068.59 148.544 2068.59 165.889C2068.59 183.235 2071.85 195.779 2078.34 204.044C2084.83 212.339 2094.87 216.471 2108.47 216.471C2122.06 216.471 2132.13 212.339 2138.71 204.044Z" fill="#9786FF"/>
</g>
<defs>
<clipPath id="clip0_301_65">
<rect width="2178" height="347" fill="white"/>
</clipPath>
</defs>
</svg>
