<svg width="1794" height="358" viewBox="0 0 1794 358" fill="none" xmlns="http://www.w3.org/2000/svg">
<path d="M251.944 61.3656L267.187 6.18669C238.143 -1.8286 207.503 -2.05958 178.342 5.51687C149.181 13.0933 122.525 28.2106 101.048 49.3518C79.571 70.493 64.0294 96.9143 55.9828 125.964C47.9362 155.014 47.6678 185.67 55.2042 214.857L0 229.188C7.54815 258.39 22.6454 285.089 43.7746 306.603C64.9037 328.117 91.3203 343.687 120.369 351.749C149.419 359.81 180.077 360.08 209.263 352.529C238.449 344.979 265.135 329.875 286.638 308.736L326.822 349.556C348.323 328.384 363.872 301.919 371.905 272.825C379.938 243.731 380.17 213.033 372.58 183.82C364.99 154.608 349.845 127.91 328.667 106.413C307.49 84.917 281.028 69.3801 251.944 61.3656ZM316.567 257.489C311.271 276.792 300.976 294.355 286.722 308.402L246.565 267.61C232.257 281.708 214.493 291.791 195.058 296.849C175.623 301.906 155.201 301.759 135.84 296.423C116.48 291.086 98.8631 280.748 84.7584 266.446C70.6537 252.144 60.5574 234.381 55.4828 214.941L110.687 200.581C105.631 181.123 105.784 160.676 111.131 141.295C116.478 121.915 126.831 104.285 141.148 90.1775C155.465 76.0702 173.241 65.9829 192.691 60.9301C212.14 55.8774 232.576 56.0371 251.944 61.3934L236.701 116.572C251.201 120.568 264.772 127.383 276.638 136.629C288.504 145.874 298.433 157.369 305.858 170.455C313.283 183.542 318.058 197.964 319.909 212.898C321.761 227.831 320.654 242.984 316.651 257.489H316.567Z" fill="black"/>
<path d="M494.218 174.651C493.791 143.311 504.223 116.795 525.513 95.103C546.803 73.4106 573.397 62.7782 605.296 63.2058C629.93 63.2058 651.044 69.2562 668.637 81.3571C685.622 92.6553 698.091 109.573 703.861 129.147L662.06 145.347C651.88 116.238 632.753 101.683 604.682 101.683C585.38 101.683 570.23 108.096 559.232 120.922C548.234 133.748 542.734 151.657 542.734 174.651C542.734 197.849 548.178 215.861 559.064 228.686C569.951 241.512 585.157 247.925 604.682 247.925C633.162 247.925 652.669 233.268 663.203 203.955L704.083 220.461C696.188 241.819 683.88 258.232 667.16 269.701C650.44 281.17 629.632 286.867 604.738 286.793C571.799 286.793 545.15 276.309 524.788 255.342C504.427 234.374 494.237 207.477 494.218 174.651Z" fill="black"/>
<path d="M722.893 281.83V169.13C722.893 163.949 723.937 158.821 725.962 154.053C727.987 149.285 730.952 144.973 734.679 141.377C738.407 137.78 742.82 134.972 747.656 133.12C752.492 131.268 757.651 130.41 762.826 130.597L827.868 132.967L826.502 169.939L766.226 167.513V281.83H722.893Z" fill="black"/>
<path d="M961.21 129.147H1006.69L943.041 305.948C938.582 318.365 932.684 327.371 925.346 332.966C918.008 338.561 907.938 341.349 895.138 341.331H849.659V306.868H889.342C893.633 307.173 897.882 305.849 901.241 303.16C904.846 299.151 907.512 294.389 909.044 289.219L911.83 281.3L837.983 129.231H884.381L909.713 187.56C917.422 206.148 923.729 220.294 928.634 229.997C931.681 221.242 936.66 206.074 943.57 184.493L961.21 129.147Z" fill="black"/>
<path d="M1014.94 205.572C1014.94 181.575 1022.46 162.057 1037.51 147.02C1052.56 131.982 1071.79 124.547 1095.19 124.714C1118.79 124.714 1138.06 132.149 1153.02 147.02C1167.97 161.89 1175.45 181.408 1175.45 205.572C1175.45 229.997 1168.02 249.645 1153.16 264.515C1138.29 279.386 1118.97 286.821 1095.19 286.821C1072.21 286.821 1053.09 279.135 1037.82 263.762C1022.55 248.39 1014.92 228.993 1014.94 205.572ZM1120.83 240.536C1127.06 232.711 1130.16 221.261 1130.14 206.186C1130.12 191.111 1127.02 179.456 1120.83 171.221C1117.73 167.36 1113.81 164.243 1109.34 162.102C1104.88 159.96 1099.99 158.849 1095.04 158.849C1090.09 158.849 1085.2 159.96 1080.74 162.102C1076.28 164.243 1072.35 167.36 1069.25 171.221C1063.06 179.475 1059.96 191.129 1059.94 206.186C1059.92 221.242 1063.03 232.692 1069.25 240.536C1072.46 244.222 1076.43 247.176 1080.87 249.2C1085.32 251.224 1090.15 252.272 1095.04 252.272C1099.93 252.272 1104.76 251.224 1109.21 249.2C1113.66 247.176 1117.62 244.222 1120.83 240.536Z" fill="black"/>
<path d="M1206.86 281.83V68.0852H1281.93C1312.43 68.0852 1337.2 77.8533 1356.22 97.3894C1375.25 116.926 1384.76 142.475 1384.76 174.037C1384.76 207.496 1375.35 233.808 1356.53 252.972C1337.71 272.136 1312.28 281.756 1280.23 281.83H1206.86ZM1237.37 253.725H1275.52C1326.96 253.725 1352.69 227.265 1352.71 174.344C1352.71 149.919 1346.3 130.783 1333.48 116.935C1320.66 103.087 1302.09 96.1719 1277.75 96.1905H1237.48L1237.37 253.725Z" fill="black"/>
<path d="M1549.51 281.83L1529.67 225.341H1435.67L1415.52 281.83H1382.58L1462.84 68.0852H1504.95L1583.67 281.83H1549.51ZM1445.76 197.542H1519.88L1499.12 139.241C1494.26 124.37 1488.87 109.1 1482.96 93.4302L1479.9 101.07L1466.94 139.241L1445.76 197.542Z" fill="black"/>
<path d="M1580.05 174.902C1579.66 142.54 1589.88 115.819 1610.7 94.7405C1631.53 73.6616 1657.16 63.336 1687.61 63.7635C1718.12 63.336 1743.6 73.6616 1764.05 94.7405C1784.51 115.819 1794.48 142.54 1793.98 174.902C1794.37 207.264 1784.35 233.975 1763.91 255.035C1743.48 276.095 1718 286.43 1687.47 286.04C1656.97 286.468 1631.33 276.133 1610.56 255.035C1589.79 233.938 1579.62 207.227 1580.05 174.902ZM1761.63 174.902C1761.63 150.737 1754.87 130.792 1741.34 115.067C1727.82 99.341 1709.73 91.5155 1687.08 91.5898C1664.29 91.5898 1646.19 99.3783 1632.77 114.955C1619.36 130.532 1612.67 150.514 1612.71 174.902C1612.71 199.531 1619.42 219.578 1632.86 235.044C1646.29 250.509 1664.39 258.242 1687.17 258.242C1709.96 258.242 1728.07 250.509 1741.48 235.044C1754.89 219.578 1761.61 199.531 1761.63 174.902Z" fill="black"/>
</svg>
