<svg width="1305" height="328" viewBox="0 0 1305 328" fill="none" xmlns="http://www.w3.org/2000/svg">
<path d="M429.484 248.346V78.42H498.605C515.885 78.42 529.874 83.3573 540.16 92.8206C550.446 102.284 555.383 114.627 555.383 130.262C555.383 145.897 550.446 158.24 540.16 167.703C529.874 177.167 515.885 182.104 498.194 182.104H453.759V248.346H429.484ZM453.759 160.709H493.668C505.188 160.709 513.828 157.829 520 152.068C526.171 146.308 529.051 138.902 529.051 129.851C529.051 120.799 526.171 113.804 520 108.455C513.828 103.107 505.188 100.638 493.668 100.638H453.759V160.709Z" fill="#9835BA"/>
<path d="M568.55 217.077L590.356 210.082C594.47 225.306 604.756 232.712 622.036 232.712C639.316 232.712 647.956 226.951 647.956 215.842C647.956 206.791 640.551 201.03 626.15 198.15L611.75 195.682C599.407 193.213 589.944 189.099 583.361 184.161C576.778 179.224 573.898 171.406 573.898 161.12C573.898 150.423 578.424 141.782 587.064 134.788C595.704 127.793 606.402 124.502 619.156 124.502C632.322 124.502 643.019 127.382 651.248 132.731C659.477 138.079 665.237 145.897 668.117 154.949L647.956 162.766C643.019 149.188 633.556 142.194 618.745 142.194C611.339 142.194 605.579 143.84 601.464 147.131C597.35 150.423 595.293 154.126 595.293 158.652C595.293 162.766 596.527 166.058 599.407 168.526C602.287 170.995 607.636 172.641 615.865 174.287L630.265 177.167C640.551 179.224 650.014 182.927 658.242 188.687C666.471 194.036 670.997 202.676 670.997 214.608C670.997 226.128 666.471 235.18 657.831 241.763C649.191 248.346 636.848 251.638 621.625 251.638C608.459 251.638 596.939 248.758 587.064 242.586C577.19 236.415 571.018 227.774 568.55 217.077Z" fill="#9835BA"/>
<path d="M773.855 127.793H797.718L750.815 265.215C746.7 276.736 741.763 284.965 736.414 289.079C731.066 293.194 723.248 295.662 712.551 295.662H687.454V275.09H711.728C716.254 275.09 719.957 274.267 722.426 272.621C724.894 270.976 726.951 268.096 728.186 263.981L734.357 247.112L681.282 127.793H706.791L731.889 187.453C735.591 196.504 738.06 208.436 738.06 224.071H748.346C748.346 211.728 750.403 200.207 753.283 190.333L773.855 127.793Z" fill="#9835BA"/>
<path d="M823.64 248.346V78.4197H883.298C907.572 78.4197 927.321 86.2371 942.544 101.872C957.767 117.507 965.173 137.668 965.173 162.766C965.173 189.51 957.767 210.082 942.544 225.717C927.732 240.94 907.161 248.758 881.652 248.758H823.64V248.346ZM847.914 226.128H878.36C919.504 226.128 939.664 205.144 939.664 163.177C939.664 143.839 934.727 128.616 924.441 117.507C914.155 106.398 899.343 101.049 880.006 101.049H847.914V226.128Z" fill="#9835BA"/>
<path d="M1103.82 248.346L1088.19 203.499H1013.31L997.261 248.346H970.929L1034.7 78.4197H1068.03L1130.57 248.346H1103.82ZM1021.54 181.281H1080.37L1063.91 134.788C1058.98 119.564 1056.51 106.398 1056.1 95.2889H1045.81C1044.99 108.455 1042.52 121.621 1037.99 134.788L1021.54 181.281Z" fill="#9835BA"/>
<path d="M1133.86 163.177C1133.45 137.256 1141.68 116.273 1158.13 99.4034C1174.59 82.5342 1195.16 74.3053 1219.44 74.7167C1243.71 74.3053 1263.87 82.5342 1280.33 99.4034C1296.79 116.273 1304.6 137.256 1304.19 163.177C1304.6 189.098 1296.37 210.082 1280.33 226.951C1264.28 243.82 1243.71 252.049 1219.44 251.638C1195.16 252.049 1174.59 243.82 1158.13 226.951C1141.68 210.493 1133.86 189.098 1133.86 163.177ZM1278.68 163.177C1278.68 143.839 1273.33 128.204 1262.64 115.45C1251.94 103.106 1237.54 96.9347 1219.44 96.9347C1201.33 96.9347 1186.93 103.106 1176.24 115.45C1165.54 127.793 1160.19 143.839 1160.19 163.177C1160.19 182.926 1165.54 198.561 1176.24 210.905C1186.93 223.248 1201.33 229.42 1219.44 229.42C1237.54 229.42 1251.94 223.248 1262.64 210.905C1273.33 198.973 1278.68 182.926 1278.68 163.177Z" fill="#9835BA"/>
<path d="M262.201 67.2948L261.204 66.7963L260.705 65.7994C244.754 25.921 206.869 0 164 0C121.131 0 83.2462 25.921 67.2948 65.7994L66.7963 66.7963L65.7994 67.2948C25.921 83.2462 0 121.131 0 164C0 206.869 25.921 244.754 65.7994 260.705L66.7963 261.204L67.2948 262.201C83.2462 302.079 121.131 328 164 328C206.869 328 244.754 302.079 260.705 262.201L261.204 261.204L262.201 260.705C302.079 244.754 328 206.869 328 164C328 121.131 302.079 83.2462 262.201 67.2948ZM98.2006 47.3556C114.65 28.4134 138.578 17.4468 164 17.4468C189.422 17.4468 213.35 28.4134 229.799 47.3556C231.793 49.848 232.292 52.8389 230.796 55.3313C229.301 57.8237 226.809 59.8176 223.818 59.8176C203.878 59.8176 184.438 65.3009 167.988 75.769C166.492 76.766 165.495 76.766 164 76.766C162.505 76.766 161.009 76.2675 160.012 75.769C143.562 65.3009 124.122 59.8176 104.182 59.8176C101.191 59.8176 98.2006 58.3222 97.2036 55.3313C95.7082 52.3404 96.2067 49.3495 98.2006 47.3556ZM78.2614 89.7264C79.2584 83.7447 83.7447 79.2584 89.7264 78.2614C94.7112 77.2644 99.696 77.2644 104.182 77.2644C124.122 77.2644 143.064 83.7447 158.517 96.2067C161.508 98.6991 165.994 98.6991 169.483 96.2067C184.936 83.7447 203.38 77.2644 223.319 77.2644C228.304 77.2644 233.289 77.7629 237.775 78.2614C243.757 79.2584 248.243 83.7447 249.24 89.7264C250.237 94.7112 250.237 99.696 250.237 104.182C250.237 113.653 248.742 123.125 245.751 132.596C244.255 136.584 240.766 140.073 236.778 141.568C232.292 143.064 227.805 142.067 224.316 139.574C206.371 126.614 185.435 120.134 163.502 120.134C141.568 120.134 120.632 127.112 102.687 139.574C100.195 141.568 97.2036 142.067 94.7112 142.067C93.2158 142.067 91.7204 142.067 90.2249 141.568C85.7386 140.073 82.7477 137.082 81.2523 132.596C78.2614 123.623 76.766 114.152 76.766 104.182C76.766 99.1976 77.2644 94.2128 78.2614 89.7264ZM219.83 164C219.83 168.486 217.337 172.973 213.848 175.465C199.392 185.933 181.945 190.918 164 190.918C146.055 190.918 129.106 185.435 114.152 175.465C110.164 172.973 108.17 168.486 108.17 164C108.17 159.514 110.663 155.027 114.152 152.535C128.608 142.067 146.055 137.082 164 137.082C181.945 137.082 198.894 142.565 213.848 152.535C217.337 155.027 219.83 159.514 219.83 164ZM59.8176 223.818C59.8176 226.809 58.3222 229.799 55.3313 230.796C54.3343 231.295 53.3374 231.295 52.3404 231.295C50.3465 231.295 48.8511 230.796 47.3556 229.301C28.4134 212.851 17.4468 188.924 17.4468 163.502C17.4468 138.079 28.4134 114.152 47.3556 97.7021C49.848 95.7082 52.8389 95.2097 55.3313 96.7052C58.3222 98.2006 59.8176 100.693 59.8176 103.684C59.8176 123.623 65.3009 142.565 75.769 159.514C77.2644 162.006 77.2644 164.997 75.769 167.489C65.3009 184.438 59.8176 203.878 59.8176 223.818ZM229.799 280.644C213.35 299.587 189.422 310.553 164 310.553C138.578 310.553 114.65 299.587 98.2006 280.644C96.2067 278.152 95.7082 275.161 97.2036 272.669C98.6991 269.678 101.191 268.182 104.182 268.182C124.122 268.182 143.562 262.699 160.012 252.231C162.505 250.736 165.495 250.736 168.486 252.231C184.936 262.699 204.377 268.182 224.316 268.182C227.307 268.182 230.298 269.678 231.295 272.669C231.793 275.161 231.793 278.65 229.799 280.644ZM249.739 238.274C248.742 244.255 244.255 248.742 238.274 249.739C233.289 250.736 228.304 250.736 223.818 250.736C203.878 250.736 184.936 244.255 169.483 231.793C166.492 229.301 162.006 229.301 159.015 231.793C143.562 244.255 124.62 250.736 104.681 250.736C99.696 250.736 94.7112 250.237 90.2249 249.739C84.2432 248.742 79.7568 244.255 78.7599 238.274C77.7629 233.289 77.7629 228.304 77.7629 223.818C77.7629 214.347 79.2584 204.875 82.2492 195.404C83.7447 191.416 87.234 187.927 91.2219 186.432C95.7082 184.936 100.195 185.933 103.684 188.426C121.629 201.386 142.565 207.866 164.498 207.866C186.432 207.866 207.368 200.888 225.313 188.426C228.802 185.933 233.289 184.936 237.775 186.432C242.261 187.927 245.252 190.918 246.748 195.404C249.739 204.377 251.234 213.848 251.234 223.818C250.736 228.802 250.736 233.289 249.739 238.274ZM280.644 229.799C279.149 230.796 277.653 231.793 275.66 231.793C274.663 231.793 273.666 231.793 272.669 231.295C269.678 229.799 268.182 227.307 268.182 224.316C268.182 204.377 262.699 185.435 252.231 168.486C250.736 165.994 250.736 163.003 252.231 160.511C262.699 144.061 268.182 124.62 268.182 104.681C268.182 101.69 269.678 98.6991 272.669 97.7021C275.161 96.2067 278.65 96.7052 280.644 98.6991C299.587 115.149 310.553 139.076 310.553 164.498C310.553 188.924 299.587 212.851 280.644 229.799Z" fill="#9835BA"/>
</svg>
