<svg width="1193" height="298" viewBox="0 0 1193 298" fill="none" xmlns="http://www.w3.org/2000/svg">
<path d="M258.771 143.086L279.228 139.207C281.821 151.905 293.989 162.502 314.181 162.502C333.086 162.502 346.031 152.927 346.031 139.207C346.031 125.487 333.351 123.405 324.533 122.118L294.235 117.463C275.084 114.359 262.12 101.661 262.12 83.2855C262.12 60.2358 282.313 44.453 312.875 44.453C335.925 44.453 357.934 53.7827 363.1 77.8543L343.419 82.2636C339.01 68.0137 326.841 61.8065 312.61 61.8065C298.379 61.8065 283.089 67.7677 283.089 81.9987C283.089 94.6779 294.746 98.8223 303.281 100.128L331.497 104.537C341.072 105.824 366.98 109.969 366.98 137.674C366.98 165.379 343.154 180.14 313.121 180.14C283.089 180.14 261.856 163.827 258.752 143.105L258.771 143.086Z" fill="black"/>
<path d="M380.737 207.031H401.705C413.873 206.766 419.569 200.294 424.225 188.391L428.634 177.263L375.816 47.2728H398.866L439.269 152.397H440.556L478.367 47.2728H503.233L444.966 192.8C439.534 206.255 428.918 225.691 405.092 225.691H380.756V207.05L380.737 207.031Z" fill="black"/>
<path d="M522.896 47.2726H544.129V70.3223H545.169C551.376 55.2965 566.667 44.434 587.9 44.434C615.34 44.434 635.022 62.2984 635.022 92.8611V176.752H613.524V97.7814C613.524 81.9796 605.765 63.0933 581.674 63.0933C560.176 63.0933 544.129 79.141 544.129 107.622V176.752H522.896V47.2726Z" fill="black"/>
<path d="M661.951 140.228C661.951 114.851 681.632 103.97 708.826 102.172L737.307 100.109C745.861 99.5981 751.028 98.2924 751.028 87.6759C751.028 71.3632 737.818 61.7875 718.913 61.7875C700.008 61.7875 688.88 72.139 685.512 84.3073L665.32 81.9797C668.423 60.4817 688.88 44.434 718.913 44.434C750.763 44.434 772.507 61.2576 772.507 88.1868V176.733H750.498L750.763 154.213H749.476C744.555 167.934 729.019 179.856 706.499 179.856C680.345 179.856 661.97 164.319 661.97 140.247L661.951 140.228ZM711.154 162.502C734.45 162.502 751.028 144.638 751.028 121.853V113.564C749.211 114.605 745.596 115.381 739.635 115.892L712.441 117.955C696.128 118.995 683.96 124.938 683.96 139.699C683.96 153.419 694.312 162.483 711.154 162.483V162.502Z" fill="black"/>
<path d="M929.936 111.748C929.936 150.845 905.865 178.285 871.668 178.285C848.884 178.285 833.858 166.117 827.651 153.173H826.364V225.161H805.131V47.2728H826.364V69.2817H827.651C833.858 56.3376 849.149 44.4153 871.404 44.4153C905.07 44.4153 929.917 71.8554 929.917 111.748H929.936ZM867.789 159.645C891.35 159.645 908.703 141.27 908.703 111.748C908.703 82.2259 890.839 63.3206 867.543 63.3206C844.247 63.3206 825.853 80.9201 825.853 110.972C825.853 141.024 843.717 159.645 867.808 159.645H867.789Z" fill="black"/>
<path d="M945.739 143.086L966.196 139.207C968.788 151.905 980.957 162.502 1001.15 162.502C1020.05 162.502 1033 152.927 1033 139.207C1033 125.487 1020.32 123.405 1011.5 122.118L981.203 117.463C962.051 114.359 949.088 101.661 949.088 83.2855C949.088 60.2358 969.28 44.453 999.843 44.453C1022.89 44.453 1044.9 53.7827 1050.07 77.8543L1030.39 82.2636C1025.98 68.0137 1013.81 61.8065 999.578 61.8065C985.347 61.8065 970.056 67.7677 970.056 81.9987C970.056 94.6779 981.714 98.8223 990.249 100.128L1018.46 104.537C1028.04 105.824 1053.95 109.969 1053.95 137.674C1053.95 165.379 1030.12 180.14 1000.09 180.14C970.056 180.14 948.823 163.827 945.72 143.105L945.739 143.086Z" fill="black"/>
<path d="M1070.81 112.524C1070.81 72.6502 1095.15 44.6802 1132.69 44.6802C1170.24 44.6802 1192.51 72.8962 1192.51 111.748V118.996H1092.31C1093.08 143.332 1107.84 161.462 1133.73 161.462C1153.15 161.462 1165.58 149.558 1169.99 137.371L1188.9 142.556C1182.93 163.013 1161.97 179.591 1133.75 179.591C1095.43 179.591 1070.83 152.397 1070.83 112.524H1070.81ZM1170.75 102.172C1169.71 77.8354 1154.43 63.3395 1132.69 63.3395C1110.95 63.3395 1094.37 79.1412 1093.08 102.172H1170.77H1170.75Z" fill="black"/>
<path d="M76.0754 104.045C69.5087 104.045 62.9609 102.323 56.9809 98.8602L0 65.9888L10.7868 47.2917L67.7488 80.182C72.9529 83.191 79.1601 83.191 84.3643 80.182C89.5684 77.173 92.672 71.7986 92.672 65.7807V0H114.265V65.7807C114.265 79.5954 107.13 91.9718 95.1511 98.8792C89.171 102.323 82.6043 104.064 76.0376 104.064L76.0754 104.045Z" fill="black"/>
<path d="M196.188 179.25L139.226 146.36C127.266 139.453 120.112 127.076 120.112 113.262C120.112 99.447 127.247 87.0705 139.226 80.1632L196.188 47.2728L206.975 65.97L150.013 98.8603C144.808 101.869 141.705 107.244 141.705 113.262C141.705 119.28 144.808 124.654 150.013 127.663L206.975 160.553L196.188 179.25Z" fill="black"/>
<path d="M114.283 226.542H92.6906V160.761C92.6906 154.743 89.587 149.369 84.3828 146.36C79.1787 143.37 72.9715 143.351 67.7673 146.36L10.8054 179.25L0.0185547 160.553L56.9805 127.663C68.9406 120.755 83.2284 120.755 95.1886 127.663C107.149 134.57 114.302 146.947 114.302 160.761V226.542H114.283Z" fill="black"/>
<path d="M1173.23 218.083H1015.78C1005.13 218.083 996.494 226.716 996.494 237.367V278.716C996.494 289.366 1005.13 298 1015.78 298H1173.23C1183.88 298 1192.51 289.366 1192.51 278.716V237.367C1192.51 226.716 1183.88 218.083 1173.23 218.083Z" fill="url(#paint0_linear_301_393)"/>
<path d="M1020.87 233.033H1039.81C1046.98 233.033 1052.47 235.172 1056.24 239.448C1060 243.725 1061.9 249.554 1061.9 256.915C1061.9 264.277 1060 270.106 1056.22 274.383C1052.43 278.659 1046.96 280.798 1039.83 280.798H1020.89V233.014L1020.87 233.033ZM1028.89 273.512H1039.13C1044.16 273.512 1047.85 271.979 1050.2 268.932C1052.55 265.886 1053.72 261.874 1053.72 256.915C1053.72 251.957 1052.55 247.908 1050.2 244.861C1047.85 241.833 1044.16 240.319 1039.13 240.319H1028.89V273.512Z" fill="white"/>
<path d="M1109.66 280.817L1105.25 267.097H1085.65L1081.29 280.817H1073.27L1089.13 233.033H1101.98L1117.91 280.817H1109.68H1109.66ZM1093.93 240.868L1087.92 259.943H1102.9L1096.81 240.868H1093.93Z" fill="white"/>
<path d="M1135.28 239.127C1139.3 234.49 1144.9 232.163 1152.09 232.163C1159.28 232.163 1164.86 234.49 1168.86 239.127C1172.85 243.763 1174.84 249.705 1174.84 256.934C1174.84 264.163 1172.85 270.087 1168.86 274.742C1164.86 279.379 1159.28 281.706 1152.09 281.706C1144.9 281.706 1139.32 279.379 1135.28 274.742C1131.27 270.106 1129.27 264.163 1129.27 256.934C1129.27 249.705 1131.27 243.782 1135.28 239.127ZM1141.13 269.443C1143.61 272.736 1147.26 274.402 1152.07 274.402C1156.88 274.402 1160.53 272.755 1162.97 269.443C1165.43 266.151 1166.64 261.968 1166.64 256.934C1166.64 251.901 1165.41 247.718 1162.97 244.426C1160.51 241.133 1156.88 239.467 1152.07 239.467C1147.26 239.467 1143.61 241.114 1141.13 244.426C1138.65 247.737 1137.42 251.901 1137.42 256.934C1137.42 261.968 1138.65 266.151 1141.13 269.443Z" fill="white"/>
<defs>
<linearGradient id="paint0_linear_301_393" x1="996.494" y1="258.051" x2="1192.51" y2="258.051" gradientUnits="userSpaceOnUse">
<stop stop-color="#A2A6FF"/>
<stop offset="1" stop-color="#D082FF"/>
</linearGradient>
</defs>
</svg>
