<svg width="1516" height="345" viewBox="0 0 1516 345" fill="none" xmlns="http://www.w3.org/2000/svg">
<g clip-path="url(#clip0_301_160)">
<path d="M531.965 245.446L481.432 96.602H514.935L553.037 216.094H546.316L584.418 96.602H618.175L567.642 245.446H531.965Z" fill="#004560"/>
<path d="M648.898 247.838C641.975 247.99 635.095 246.708 628.684 244.072C623.336 241.824 618.768 238.039 615.548 233.188C612.427 228.126 610.844 222.253 610.998 216.297C610.894 210.588 612.344 204.96 615.192 200.021C618.308 194.964 622.728 190.849 627.979 188.115C634.71 184.61 641.992 182.305 649.505 181.3L682.655 175.907V198.036L654.861 203.123C651.327 203.594 647.98 204.997 645.159 207.192C644.003 208.222 643.096 209.505 642.509 210.942C641.922 212.38 641.672 213.935 641.774 215.485C641.708 216.993 642.015 218.493 642.667 219.852C643.32 221.21 644.297 222.383 645.512 223.267C648.237 225.211 651.524 226.194 654.861 226.064C659.364 226.171 663.814 225.065 667.749 222.86C671.39 220.866 674.388 217.867 676.39 214.213C678.457 210.521 679.519 206.343 679.472 202.105V173.721C679.438 171.753 678.967 169.816 678.092 168.055C677.218 166.295 675.962 164.755 674.418 163.547C670.68 160.568 665.991 159.067 661.23 159.325C656.211 159.236 651.299 160.787 647.232 163.748C643.203 166.642 640.124 170.682 638.389 175.348L614.588 163.952C616.609 157.935 620.082 152.519 624.694 148.184C629.504 143.682 635.178 140.219 641.369 138.01C648.176 135.553 655.363 134.33 662.594 134.399C670.94 134.244 679.211 135.982 686.798 139.486C693.445 142.471 699.122 147.285 703.172 153.373C707.158 159.501 709.203 166.701 709.034 174.024V245.955H681.695V228.354L688.466 227.184C685.567 231.655 682.024 235.665 677.954 239.087C674.113 242.204 669.727 244.568 665.02 246.057C659.772 247.494 654.33 248.095 648.898 247.838V247.838Z" fill="#004560"/>
<path d="M729.095 245.446V96.602H758.86V245.446H729.095Z" fill="#004560"/>
<path d="M778.72 245.446V96.602H808.482V245.446H778.72Z" fill="#004560"/>
<path d="M880.544 247.839C870.042 248.115 859.668 245.455 850.577 240.157C842.263 235.222 835.461 228.078 830.918 219.506C826.228 210.65 823.83 200.747 823.945 190.712C823.758 180.518 826.269 170.458 831.222 161.564C835.826 153.15 842.577 146.126 850.779 141.216C859.171 136.216 868.772 133.647 878.523 133.789C886.332 133.639 894.093 135.039 901.364 137.91C907.723 140.464 913.448 144.386 918.14 149.406C922.702 154.351 926.241 160.161 928.55 166.497C930.984 173.246 932.198 180.379 932.138 187.558C932.138 189.695 932.138 191.781 931.834 193.867C931.675 195.603 931.3 197.311 930.722 198.954H849.567V176.977H914.148L900.049 187.151C901.454 182.162 901.454 176.878 900.049 171.89C898.741 167.595 896.059 163.858 892.419 161.259C888.455 158.578 883.75 157.224 878.977 157.391C874.272 157.275 869.642 158.588 865.687 161.157C861.832 163.937 858.919 167.845 857.347 172.349C855.401 178.138 854.663 184.268 855.176 190.357C854.575 195.847 855.32 201.4 857.347 206.532C859.208 211.023 862.403 214.826 866.494 217.419C870.823 219.881 875.687 221.234 880.657 221.359C885.627 221.483 890.551 220.375 894.996 218.132C898.665 216.056 901.706 213.014 903.789 209.332L927.64 220.725C925.448 226.145 921.979 230.946 917.533 234.715C912.776 238.806 907.289 241.948 901.364 243.972C894.705 246.487 887.656 247.797 880.544 247.839V247.839Z" fill="#004560"/>
<path d="M964.681 289.602C961.58 289.617 958.484 289.344 955.433 288.788C952.702 288.348 950.058 287.474 947.601 286.194V261.624C949.759 262.24 951.952 262.714 954.17 263.047C956.459 263.42 958.775 263.609 961.093 263.608C963.356 263.836 965.641 263.582 967.8 262.863C969.959 262.145 971.944 260.976 973.626 259.436C976.173 256.579 978.255 253.336 979.792 249.823L987.118 232.883L986.713 257.858L939.062 136.178H971.047L1002.58 222.657H990.705L1022.24 136.178H1054.18L1007.74 255.417C1005.25 262.319 1001.63 268.752 997.022 274.443C993.152 279.311 988.224 283.218 982.617 285.864C977.009 288.51 970.873 289.824 964.681 289.704V289.602Z" fill="#004560"/>
<path d="M1067.31 245.446V96.6019H1115.52C1130 96.2371 1144.34 99.544 1157.21 106.217C1168.63 112.228 1178.12 121.361 1184.6 132.566C1190.97 144.352 1194.31 157.557 1194.31 170.974C1194.31 184.391 1190.97 197.594 1184.6 209.38C1178.13 220.63 1168.64 229.815 1157.21 235.883C1144.32 242.514 1129.99 245.801 1115.52 245.446H1067.31ZM1098.04 218.486H1116.28C1124.98 218.707 1133.6 216.675 1141.3 212.584C1148.2 208.727 1153.88 202.978 1157.67 196.002C1161.49 188.183 1163.48 179.586 1163.48 170.872C1163.48 162.159 1161.49 153.562 1157.67 145.743C1153.87 138.825 1148.19 133.141 1141.3 129.362C1133.58 125.33 1124.97 123.334 1116.28 123.562H1097.99L1098.04 218.486Z" fill="#004560"/>
<path d="M1193.04 245.446L1243.07 96.602H1283.95L1333.93 245.446H1300.42L1290.32 214.924H1236.15L1226.04 245.446H1193.04ZM1244.84 188.116H1281.93L1259.34 117.765H1267.88L1244.84 188.116Z" fill="#004560"/>
<path d="M1412.35 247.837C1401.75 247.933 1391.24 245.963 1381.38 242.038C1372.13 238.36 1363.7 232.869 1356.58 225.882C1349.45 218.896 1343.78 210.554 1339.89 201.342C1335.85 191.685 1333.82 181.297 1333.93 170.82C1333.81 160.352 1335.81 149.969 1339.79 140.298C1343.58 131.136 1349.19 122.846 1356.26 115.931C1363.44 108.956 1371.9 103.462 1381.18 99.7558C1401.23 92.0236 1423.42 92.0236 1443.48 99.7558C1452.76 103.445 1461.23 108.94 1468.4 115.931C1475.47 122.846 1481.08 131.136 1484.87 140.298C1488.88 149.962 1490.87 160.349 1490.73 170.82C1490.92 186.124 1486.48 201.125 1478.02 213.841C1469.56 226.556 1457.46 236.388 1443.33 242.038C1433.48 245.963 1422.95 247.933 1412.35 247.837ZM1412.35 219.859C1418.78 219.926 1425.15 218.715 1431.1 216.297C1436.77 213.94 1441.92 210.483 1446.26 206.123C1450.65 201.804 1454.1 196.605 1456.37 190.862C1458.79 184.554 1460 177.839 1459.91 171.076C1460 164.345 1458.79 157.661 1456.37 151.388C1454.06 145.667 1450.62 140.476 1446.26 136.127C1441.98 131.699 1436.81 128.232 1431.1 125.953C1419.04 121.274 1405.67 121.274 1393.61 125.953C1387.91 128.25 1382.74 131.714 1378.45 136.127C1374.1 140.484 1370.66 145.673 1368.34 151.388C1365.9 157.657 1364.68 164.342 1364.75 171.076C1364.68 177.842 1365.9 184.558 1368.34 190.862C1370.63 196.597 1374.07 201.793 1378.45 206.123C1382.8 210.467 1387.95 213.922 1393.61 216.297C1399.56 218.72 1405.93 219.932 1412.35 219.859V219.859Z" fill="#004560"/>
<path d="M271.263 107.437C300.734 107.437 324.626 83.3867 324.626 53.7187C324.626 24.0507 300.734 0 271.263 0C241.791 0 217.899 24.0507 217.899 53.7187C217.899 83.3867 241.791 107.437 271.263 107.437Z" fill="#F46060"/>
<path d="M303.451 68.7741C283.47 62.9868 262.369 62.3241 242.069 66.8466C221.768 71.3691 202.914 80.9348 187.225 94.6686C185.618 96.0109 183.64 96.8196 181.559 96.9836C179.478 97.1476 177.397 96.6571 175.603 95.5827C168.599 91.1155 160.99 87.6889 153.013 85.4087C151.142 84.8843 149.46 83.83 148.17 82.3684C146.879 80.9069 146.035 79.102 145.737 77.1697C143.395 62.1413 137.287 47.9602 127.991 35.967C118.695 23.9738 106.517 14.5626 92.6053 8.6219C78.6938 2.68119 63.5094 0.405937 48.4824 2.01228C33.4554 3.61863 19.0828 9.05307 6.72087 17.8023C3.92243 19.8346 1.89545 22.7677 0.976649 26.1159C0.0578475 29.4641 0.302205 33.0277 1.66753 36.2179L83.7324 228.863C88.859 232.278 94.8875 234.059 101.034 233.977C107.181 233.896 113.162 231.955 118.198 228.406L293.093 105.809C298.599 101.944 302.697 96.3698 304.759 89.9393C306.821 83.5088 306.734 76.5763 304.512 70.1999L303.451 68.7741Z" fill="url(#paint0_linear_301_160)"/>
<path d="M284.603 286.297L396.788 22.7888C397.734 20.4979 398.109 18.011 397.884 15.5408C397.659 13.0705 396.839 10.6925 395.495 8.61323C394.152 6.53392 392.323 4.81648 390.171 3.6082C388.018 2.39992 385.607 1.73651 383.143 1.67822V1.67822C360.557 1.67674 338.552 8.88543 320.292 22.2671C302.033 35.6489 288.459 54.515 281.521 76.1525C280.132 80.5129 277.728 84.4769 274.511 87.715C271.295 90.9531 267.357 93.3726 263.025 94.7717C253.21 98.0445 244.22 103.423 236.673 110.537C229.126 117.651 223.203 126.33 219.315 135.974C216.956 141.962 212.716 147.009 207.241 150.344C201.767 153.678 195.358 155.118 188.995 154.442C185.452 154.076 181.894 153.887 178.333 153.881C156.414 153.89 135.132 161.307 117.898 174.939C100.663 188.571 88.4732 207.632 83.2793 229.068L107.635 286.297C140.987 364.585 251.302 364.585 284.603 286.297Z" fill="url(#paint1_linear_301_160)"/>
<path d="M280.359 188.524C295.095 188.524 307.041 176.499 307.041 161.665C307.041 146.831 295.095 134.805 280.359 134.805C265.623 134.805 253.678 146.831 253.678 161.665C253.678 176.499 265.623 188.524 280.359 188.524Z" fill="#199B57"/>
<path d="M240.589 288.178C250.413 288.178 258.377 280.161 258.377 270.272C258.377 260.383 250.413 252.366 240.589 252.366C230.766 252.366 222.802 260.383 222.802 270.272C222.802 280.161 230.766 288.178 240.589 288.178Z" fill="#199B57"/>
<path d="M123.251 134.602C130.619 134.602 136.592 128.589 136.592 121.172C136.592 113.755 130.619 107.743 123.251 107.743C115.883 107.743 109.91 113.755 109.91 121.172C109.91 128.589 115.883 134.602 123.251 134.602Z" fill="#61D1C9"/>
<path d="M79.5605 83.4628C91.9263 77.9906 97.5426 63.4621 92.1067 51.014C86.6708 38.5658 72.2407 32.911 59.8749 38.3832C47.5091 43.8553 41.8917 58.3815 47.3277 70.8297C52.7636 83.2779 67.1947 88.9349 79.5605 83.4628Z" fill="#61D1C9"/>
<path d="M211.027 203.582C211.965 205.448 212.528 207.482 212.683 209.568C212.837 211.653 212.58 213.75 211.928 215.735C211.275 217.721 210.238 219.557 208.878 221.138C207.518 222.719 205.863 224.014 204.005 224.948C187.26 233.507 173.249 246.642 163.578 262.847C162.565 264.745 161.178 266.415 159.504 267.758C157.83 269.101 155.903 270.09 153.839 270.661C151.775 271.233 149.616 271.377 147.495 271.084C145.374 270.791 143.334 270.067 141.499 268.958C139.664 267.848 138.071 266.373 136.818 264.626C135.566 262.878 134.679 260.894 134.21 258.791C133.742 256.688 133.702 254.511 134.094 252.393C134.486 250.274 135.301 248.258 136.49 246.466C149.284 225.061 167.84 207.742 190.007 196.513C193.734 194.697 198.019 194.419 201.947 195.74C205.875 197.061 209.133 199.875 211.027 203.582V203.582Z" fill="#199B57"/>
</g>
<defs>
<linearGradient id="paint0_linear_301_160" x1="259.639" y1="279.885" x2="63.9453" y2="-101.759" gradientUnits="userSpaceOnUse">
<stop stop-color="#004560"/>
<stop offset="1" stop-color="#61D1C9"/>
</linearGradient>
<linearGradient id="paint1_linear_301_160" x1="216.637" y1="118.629" x2="349.83" y2="246.14" gradientUnits="userSpaceOnUse">
<stop stop-color="#43D16A"/>
<stop offset="1" stop-color="#25B7B0"/>
</linearGradient>
<clipPath id="clip0_301_160">
<rect width="1516" height="345" fill="white"/>
</clipPath>
</defs>
</svg>
