<svg width="1584" height="280" viewBox="0 0 1584 280" fill="none" xmlns="http://www.w3.org/2000/svg">
<path d="M85.977 274.94L0 6.87207H44.5745L110.435 221.724L176.545 6.87207H220.786L134.809 274.94H85.977Z" fill="black"/>
<path d="M244.156 47.0757C234.556 36.3241 234.556 20.2418 244.156 9.9419C253.672 -0.809737 269.281 -0.809737 278.797 9.9419C288.313 20.2418 288.313 36.4144 278.463 47.0757C268.947 57.3756 254.089 57.3756 244.156 47.0757ZM242.403 274.938V83.3964H280.634V274.938H242.403Z" fill="black"/>
<path d="M351.001 274.938V123.331H311.935V83.487H351.001V29.8191H389.231V83.3966H426.627V123.241H389.231V274.938H351.001Z" fill="black"/>
<path d="M598.916 83.489H637.147V275.031H598.916V247.474C584.392 269.339 563.858 280 536.979 280C512.605 280 492.071 270.423 474.709 250.907C457.346 231.392 448.916 207.268 448.916 179.26C448.916 150.89 457.43 127.128 474.709 107.612C492.071 88.0969 512.605 78.5198 536.979 78.5198C563.858 78.5198 584.392 89.2714 598.916 110.684V83.489ZM542.989 240.517C558.933 240.517 572.372 234.735 582.973 223.26C593.574 211.425 598.916 196.878 598.916 179.17C598.916 161.461 593.574 147.005 582.973 135.531C572.372 123.695 558.933 117.912 542.989 117.912C527.046 117.912 513.607 123.695 503.006 135.531C492.405 147.005 487.063 161.551 487.063 179.17C487.063 196.788 492.405 211.334 503.006 223.26C513.607 234.735 527.13 240.517 542.989 240.517Z" fill="black"/>
<path d="M778.464 6.87207C812.438 6.87207 840.735 19.8825 863.022 45.5418C885.644 71.2012 896.996 103.004 896.996 140.951C896.996 178.447 885.644 210.25 863.022 236.361C840.735 262.02 812.438 275.031 778.464 275.031H681.135V6.87207H778.464ZM778.464 232.837C801.837 232.837 820.952 224.073 835.476 206.816C850.335 189.56 857.764 167.334 857.764 140.951C857.764 114.117 850.335 92.3431 835.476 75.0863C820.952 57.8294 801.837 49.0655 778.464 49.0655H721.87V232.928H778.464V232.837Z" fill="black"/>
<path d="M1055.51 179.621L1016.28 58.5522L976.967 179.621L963.528 220.911L946.165 274.94H901.925L991.825 6.87207H1040.66L1130.22 274.94H1086.32L1068.95 220.911" fill="black"/>
<path d="M1263.61 279.906C1227.88 279.906 1197.41 266.535 1172.29 239.701C1147.5 212.505 1135.14 179.528 1135.14 140.858C1135.14 102.188 1147.5 69.2104 1172.29 42.4668C1197.41 15.2715 1227.88 1.89966 1263.61 1.89966C1299.33 1.89966 1329.8 15.2715 1354.51 42.4668C1379.63 69.3007 1391.99 102.188 1391.99 140.858C1391.99 179.528 1379.63 212.505 1354.51 239.701C1329.8 266.535 1299.33 279.906 1263.61 279.906ZM1263.61 237.081C1288.4 237.081 1309.27 227.865 1325.88 209.885C1342.82 191.544 1351.34 168.505 1351.34 140.948C1351.34 113.391 1342.82 90.3523 1325.88 72.3726C1309.27 54.0316 1288.4 44.8159 1263.61 44.8159C1238.82 44.8159 1217.95 54.0316 1201 72.3726C1184.39 90.3523 1175.88 113.391 1175.88 140.948C1175.88 168.505 1184.39 191.544 1201 209.885C1217.95 227.865 1238.82 237.081 1263.61 237.081Z" fill="black"/>
<path d="M1443.58 5.60615L1445.17 6.7807C1473.89 28.7357 1512.28 28.7357 1540.91 6.6C1564.62 -11.6507 1594.67 17.713 1580.23 45.0891L1530.98 138.421C1514.04 170.585 1471.21 170.585 1454.19 138.421L1404.44 44.0952C1390 16.8999 1419.88 -12.5542 1443.58 5.60615Z" fill="#FFDD35"/>
</svg>
